<svg width="49" height="55" viewBox="0 0 49 55" fill="none" xmlns="http://www.w3.org/2000/svg">
<path d="M1.95269 52.78V43.564H3.23669V44.116C3.38869 43.94 3.57269 43.788 3.78869 43.66C4.00469 43.532 4.26069 43.468 4.55669 43.468C4.91669 43.468 5.20069 43.564 5.40869 43.756C5.62469 43.94 5.78469 44.176 5.88869 44.464C5.99269 44.744 6.06069 45.032 6.09269 45.328C6.12469 45.616 6.14069 45.864 6.14069 46.072V47.752C6.14069 48.24 6.09269 48.704 5.99669 49.144C5.90069 49.576 5.72469 49.928 5.46869 50.2C5.22069 50.464 4.86869 50.596 4.41269 50.596C4.16469 50.596 3.94469 50.536 3.75269 50.416C3.56069 50.288 3.38869 50.144 3.23669 49.984V52.78H1.95269ZM4.16069 49.588C4.38469 49.588 4.54469 49.508 4.64069 49.348C4.73669 49.18 4.79669 48.956 4.82069 48.676C4.84469 48.396 4.85669 48.088 4.85669 47.752V46.072C4.85669 45.784 4.84069 45.52 4.80869 45.28C4.77669 45.032 4.70869 44.836 4.60469 44.692C4.50069 44.548 4.33669 44.476 4.11269 44.476C3.94469 44.476 3.78469 44.512 3.63269 44.584C3.48069 44.656 3.34869 44.74 3.23669 44.836V49.276C3.35669 49.364 3.49269 49.44 3.64469 49.504C3.79669 49.56 3.96869 49.588 4.16069 49.588ZM7.42816 50.5V40.78H8.71216V50.5H7.42816ZM11.0943 50.596C10.8223 50.596 10.5823 50.52 10.3743 50.368C10.1663 50.208 10.0023 50.008 9.88234 49.768C9.76234 49.52 9.70234 49.26 9.70234 48.988C9.70234 48.556 9.77434 48.192 9.91834 47.896C10.0623 47.6 10.2583 47.352 10.5063 47.152C10.7623 46.944 11.0543 46.764 11.3823 46.612C11.7183 46.46 12.0703 46.312 12.4383 46.168V45.676C12.4383 45.396 12.4223 45.164 12.3903 44.98C12.3583 44.796 12.2903 44.66 12.1863 44.572C12.0903 44.476 11.9423 44.428 11.7423 44.428C11.5663 44.428 11.4223 44.468 11.3103 44.548C11.2063 44.628 11.1303 44.744 11.0823 44.896C11.0343 45.04 11.0103 45.212 11.0103 45.412V45.76L9.73834 45.712C9.75434 44.944 9.93034 44.38 10.2663 44.02C10.6023 43.652 11.1223 43.468 11.8263 43.468C12.5143 43.468 13.0023 43.656 13.2903 44.032C13.5783 44.408 13.7223 44.952 13.7223 45.664V48.832C13.7223 49.048 13.7263 49.256 13.7343 49.456C13.7503 49.656 13.7663 49.844 13.7823 50.02C13.8063 50.188 13.8263 50.348 13.8423 50.5H12.6663C12.6423 50.372 12.6103 50.212 12.5703 50.02C12.5383 49.82 12.5143 49.64 12.4983 49.48C12.4183 49.752 12.2623 50.008 12.0303 50.248C11.8063 50.48 11.4943 50.596 11.0943 50.596ZM11.5983 49.492C11.7263 49.492 11.8463 49.456 11.9583 49.384C12.0703 49.312 12.1703 49.232 12.2583 49.144C12.3463 49.048 12.4063 48.972 12.4383 48.916V46.948C12.2383 47.06 12.0503 47.172 11.8743 47.284C11.6983 47.396 11.5423 47.516 11.4063 47.644C11.2783 47.764 11.1743 47.904 11.0943 48.064C11.0223 48.216 10.9863 48.392 10.9863 48.592C10.9863 48.872 11.0383 49.092 11.1423 49.252C11.2463 49.412 11.3983 49.492 11.5983 49.492ZM14.9605 50.5V43.564H16.2445V44.248C16.4765 44.032 16.7325 43.848 17.0125 43.696C17.2925 43.544 17.6005 43.468 17.9365 43.468C18.2165 43.468 18.4285 43.54 18.5725 43.684C18.7245 43.828 18.8285 44.008 18.8845 44.224C18.9485 44.44 18.9805 44.66 18.9805 44.884V50.5H17.6965V45.256C17.6965 45.008 17.6605 44.816 17.5885 44.68C17.5165 44.544 17.3685 44.476 17.1445 44.476C17.0005 44.476 16.8485 44.52 16.6885 44.608C16.5365 44.688 16.3885 44.788 16.2445 44.908V50.5H14.9605ZM22.0819 50.596C21.7219 50.596 21.4299 50.528 21.2059 50.392C20.9899 50.256 20.8299 50.064 20.7259 49.816C20.6299 49.568 20.5819 49.276 20.5819 48.94V44.416H19.8499V43.564H20.5819V41.536H21.8659V43.564H22.9819V44.416H21.8659V48.856C21.8659 49.128 21.9099 49.324 21.9979 49.444C22.0859 49.556 22.2539 49.612 22.5019 49.612C22.5659 49.612 22.6379 49.608 22.7179 49.6C22.8059 49.592 22.8899 49.584 22.9699 49.576V50.524C22.8099 50.548 22.6619 50.564 22.5259 50.572C22.3899 50.588 22.2419 50.596 22.0819 50.596ZM24.0333 50.5V40.78H26.4453C27.0293 40.78 27.4933 40.888 27.8373 41.104C28.1893 41.312 28.4453 41.616 28.6053 42.016C28.7653 42.416 28.8453 42.9 28.8453 43.468C28.8453 43.98 28.7533 44.424 28.5693 44.8C28.3933 45.176 28.1293 45.468 27.7773 45.676C27.4253 45.876 26.9853 45.976 26.4573 45.976H25.3893V50.5H24.0333ZM25.3893 45.004H26.0133C26.4053 45.004 26.7133 44.96 26.9373 44.872C27.1613 44.784 27.3213 44.632 27.4173 44.416C27.5133 44.192 27.5613 43.88 27.5613 43.48C27.5613 43.016 27.5253 42.66 27.4533 42.412C27.3893 42.164 27.2493 41.992 27.0333 41.896C26.8173 41.8 26.4813 41.752 26.0253 41.752H25.3893V45.004ZM31.3766 50.596C30.8326 50.596 30.4126 50.492 30.1166 50.284C29.8206 50.068 29.6126 49.756 29.4926 49.348C29.3806 48.932 29.3246 48.424 29.3246 47.824V46.24C29.3246 45.624 29.3846 45.112 29.5046 44.704C29.6246 44.296 29.8326 43.988 30.1286 43.78C30.4326 43.572 30.8486 43.468 31.3766 43.468C31.9606 43.468 32.3886 43.588 32.6606 43.828C32.9406 44.068 33.1246 44.416 33.2126 44.872C33.3006 45.32 33.3446 45.86 33.3446 46.492V47.056H30.6086V48.448C30.6086 48.728 30.6326 48.956 30.6806 49.132C30.7366 49.308 30.8206 49.44 30.9326 49.528C31.0526 49.608 31.2046 49.648 31.3886 49.648C31.5806 49.648 31.7246 49.604 31.8206 49.516C31.9246 49.42 31.9926 49.288 32.0246 49.12C32.0646 48.944 32.0846 48.74 32.0846 48.508V48.088H33.3326V48.352C33.3326 49.048 33.1846 49.596 32.8886 49.996C32.5926 50.396 32.0886 50.596 31.3766 50.596ZM30.6086 46.36H32.0846V45.736C32.0846 45.448 32.0686 45.208 32.0366 45.016C32.0046 44.816 31.9366 44.668 31.8326 44.572C31.7366 44.468 31.5806 44.416 31.3646 44.416C31.1566 44.416 30.9966 44.464 30.8846 44.56C30.7806 44.656 30.7086 44.82 30.6686 45.052C30.6286 45.276 30.6086 45.588 30.6086 45.988V46.36ZM35.5514 50.596C35.2794 50.596 35.0394 50.52 34.8314 50.368C34.6234 50.208 34.4594 50.008 34.3394 49.768C34.2194 49.52 34.1594 49.26 34.1594 48.988C34.1594 48.556 34.2314 48.192 34.3754 47.896C34.5194 47.6 34.7154 47.352 34.9634 47.152C35.2194 46.944 35.5114 46.764 35.8394 46.612C36.1754 46.46 36.5274 46.312 36.8954 46.168V45.676C36.8954 45.396 36.8794 45.164 36.8474 44.98C36.8154 44.796 36.7474 44.66 36.6434 44.572C36.5474 44.476 36.3994 44.428 36.1994 44.428C36.0234 44.428 35.8794 44.468 35.7674 44.548C35.6634 44.628 35.5874 44.744 35.5394 44.896C35.4914 45.04 35.4674 45.212 35.4674 45.412V45.76L34.1954 45.712C34.2114 44.944 34.3874 44.38 34.7234 44.02C35.0594 43.652 35.5794 43.468 36.2834 43.468C36.9714 43.468 37.4594 43.656 37.7474 44.032C38.0354 44.408 38.1794 44.952 38.1794 45.664V48.832C38.1794 49.048 38.1834 49.256 38.1914 49.456C38.2074 49.656 38.2234 49.844 38.2394 50.02C38.2634 50.188 38.2834 50.348 38.2994 50.5H37.1234C37.0994 50.372 37.0674 50.212 37.0274 50.02C36.9954 49.82 36.9714 49.64 36.9554 49.48C36.8754 49.752 36.7194 50.008 36.4874 50.248C36.2634 50.48 35.9514 50.596 35.5514 50.596ZM36.0554 49.492C36.1834 49.492 36.3034 49.456 36.4154 49.384C36.5274 49.312 36.6274 49.232 36.7154 49.144C36.8034 49.048 36.8634 48.972 36.8954 48.916V46.948C36.6954 47.06 36.5074 47.172 36.3314 47.284C36.1554 47.396 35.9994 47.516 35.8634 47.644C35.7354 47.764 35.6314 47.904 35.5514 48.064C35.4794 48.216 35.4434 48.392 35.4434 48.592C35.4434 48.872 35.4954 49.092 35.5994 49.252C35.7034 49.412 35.8554 49.492 36.0554 49.492ZM41.3135 50.596C40.7455 50.596 40.3135 50.484 40.0175 50.26C39.7295 50.028 39.5335 49.704 39.4295 49.288C39.3335 48.872 39.2855 48.388 39.2855 47.836V46.24C39.2855 45.656 39.3375 45.16 39.4415 44.752C39.5455 44.336 39.7415 44.02 40.0295 43.804C40.3255 43.58 40.7535 43.468 41.3135 43.468C41.8175 43.468 42.2055 43.552 42.4775 43.72C42.7575 43.88 42.9495 44.124 43.0535 44.452C43.1575 44.772 43.2095 45.172 43.2095 45.652V46.06H42.0455V45.64C42.0455 45.336 42.0255 45.096 41.9855 44.92C41.9455 44.744 41.8735 44.616 41.7695 44.536C41.6655 44.456 41.5175 44.416 41.3255 44.416C41.1175 44.416 40.9575 44.464 40.8455 44.56C40.7335 44.656 40.6575 44.82 40.6175 45.052C40.5855 45.276 40.5695 45.584 40.5695 45.976V48.16C40.5695 48.752 40.6255 49.148 40.7375 49.348C40.8495 49.548 41.0495 49.648 41.3375 49.648C41.5535 49.648 41.7095 49.6 41.8055 49.504C41.9095 49.4 41.9735 49.256 41.9975 49.072C42.0295 48.888 42.0455 48.68 42.0455 48.448V47.884H43.2095V48.364C43.2095 48.828 43.1535 49.228 43.0415 49.564C42.9375 49.9 42.7455 50.156 42.4655 50.332C42.1935 50.508 41.8095 50.596 41.3135 50.596ZM46.2125 50.596C45.6685 50.596 45.2485 50.492 44.9525 50.284C44.6565 50.068 44.4485 49.756 44.3285 49.348C44.2165 48.932 44.1605 48.424 44.1605 47.824V46.24C44.1605 45.624 44.2205 45.112 44.3405 44.704C44.4605 44.296 44.6685 43.988 44.9645 43.78C45.2685 43.572 45.6845 43.468 46.2125 43.468C46.7965 43.468 47.2245 43.588 47.4965 43.828C47.7765 44.068 47.9605 44.416 48.0485 44.872C48.1365 45.32 48.1805 45.86 48.1805 46.492V47.056H45.4445V48.448C45.4445 48.728 45.4685 48.956 45.5165 49.132C45.5725 49.308 45.6565 49.44 45.7685 49.528C45.8885 49.608 46.0405 49.648 46.2245 49.648C46.4165 49.648 46.5605 49.604 46.6565 49.516C46.7605 49.42 46.8285 49.288 46.8605 49.12C46.9005 48.944 46.9205 48.74 46.9205 48.508V48.088H48.1685V48.352C48.1685 49.048 48.0205 49.596 47.7245 49.996C47.4285 50.396 46.9245 50.596 46.2125 50.596ZM45.4445 46.36H46.9205V45.736C46.9205 45.448 46.9045 45.208 46.8725 45.016C46.8405 44.816 46.7725 44.668 46.6685 44.572C46.5725 44.468 46.4165 44.416 46.2005 44.416C45.9925 44.416 45.8325 44.464 45.7205 44.56C45.6165 44.656 45.5445 44.82 45.5045 45.052C45.4645 45.276 45.4445 45.588 45.4445 45.988V46.36Z" fill="black"/>
<path d="M23.7745 26.25C23.6495 24.25 22.612 19.9125 20.212 19.3125" stroke="#8A9B6E" stroke-width="0.375"/>
<path d="M3.46399 9.68772C3.46399 9.68772 8.30871 17.8434 11.739 19.8238C15.1692 21.8043 18.2898 22.8211 20.2703 19.3909C22.2508 15.9606 20.5971 13.2467 17.1668 11.2662C13.7366 9.28578 3.46399 9.68772 3.46399 9.68772Z" fill="#567361"/>
<mask id="mask0_5113_56" style="mask-type:alpha" maskUnits="userSpaceOnUse" x="0" y="9" width="27" height="19">
<path d="M26.4692 22.9711L2.82897 9.3224L9.52801e-06 13.935L23.6403 27.5837L26.4692 22.9711Z" fill="#D9D9D9"/>
</mask>
<g mask="url(#mask0_5113_56)">
<path d="M3.37956 9.65297C3.37956 9.65297 8.23118 17.8755 11.6778 19.8654C15.1244 21.8553 18.2623 22.8729 20.266 19.4023C22.2697 15.9318 20.6134 13.1958 17.1668 11.2059C13.7202 9.21598 3.37956 9.65297 3.37956 9.65297Z" fill="#354733"/>
</g>
<path d="M25.0781 26.4375C25.1719 24.9375 25.95 21.6844 27.75 21.2344" stroke="#8A9B6E" stroke-width="0.28125"/>
<path d="M40.311 14.0158C40.311 14.0158 36.6775 20.1325 34.1048 21.6178C31.5321 23.1032 29.1916 23.8658 27.7063 21.2931C26.2209 18.7204 27.4612 16.685 30.0339 15.1997C32.6066 13.7143 40.311 14.0158 40.311 14.0158Z" fill="#587462"/>
<mask id="mask1_5113_56" style="mask-type:alpha" maskUnits="userSpaceOnUse" x="23" y="13" width="20" height="15">
<path d="M23.0571 23.9783L40.7873 13.7418L42.909 17.2012L25.1788 27.4378L23.0571 23.9783Z" fill="#D9D9D9"/>
</mask>
<g mask="url(#mask1_5113_56)">
<path d="M40.3743 13.9897C40.3743 13.9897 36.7356 20.1566 34.1507 21.649C31.5657 23.1415 29.2123 23.9046 27.7095 21.3017C26.2067 18.6988 27.4489 16.6468 30.0339 15.1544C32.6188 13.662 40.3743 13.9897 40.3743 13.9897Z" fill="#354733"/>
</g>
<path d="M24.5 26C24.375 24 24.5 15.25 24.5 15.25" stroke="#8A9B6E" stroke-width="0.375"/>
<path d="M24.6133 1.15719C24.6133 1.15719 28.0937 7.36229 28.0937 10.333C28.0937 13.3037 27.584 15.7119 24.6133 15.7119C21.6426 15.7119 20.5 13.6201 20.5 10.6494C20.5 7.67869 24.6133 1.15719 24.6133 1.15719Z" fill="#8A9B6E"/>
<mask id="mask2_5113_56" style="mask-type:alpha" maskUnits="userSpaceOnUse" x="24" y="0" width="5" height="22">
<path d="M24.6141 21.0808L24.6141 0.60774L28.6709 0.499998L28.6709 20.9731L24.6141 21.0808Z" fill="#D9D9D9"/>
</mask>
<g mask="url(#mask2_5113_56)">
<path d="M24.6224 1.08933C24.6224 1.08933 28.1437 7.32399 28.1437 10.3088C28.1437 13.2937 27.6279 15.7134 24.6224 15.7134C21.6168 15.7134 20.4608 13.6116 20.4608 10.6267C20.4608 7.6419 24.6224 1.08933 24.6224 1.08933Z" fill="#354733"/>
</g>
<rect x="16.875" y="25.875" width="15" height="3.75" fill="#D54B01"/>
<rect x="16.875" y="36" width="15" height="0.75" fill="#D54B01"/>
<path d="M18.375 29.625H30.375L30 32.25H18.75L18.375 29.625Z" fill="#4C210D"/>
<path d="M19.125 32.25H29.625L29.4277 33.75H19.3559L19.125 32.25Z" fill="#D54B01"/>
<path d="M19.5 33.75H29.25L28.9453 36H19.8047L19.5 33.75Z" fill="#50210B"/>
</svg>
